<svg width="32" height="20" viewBox="0 0 32 20" fill="none" xmlns="http://www.w3.org/2000/svg">
<line x1="16" y1="19" x2="20" y2="19" stroke="white" stroke-width="2"/>
<line x1="16" y1="7" x2="28" y2="7" stroke="white" stroke-width="2"/>
<line x1="16" y1="1" x2="32" y2="1" stroke="white" stroke-width="2"/>
<line x1="16" y1="13" x2="24" y2="13" stroke="white" stroke-width="2"/>
<path d="M7.29289 19.7071C7.68342 20.0976 8.31658 20.0976 8.70711 19.7071L15.0711 13.3431C15.4616 12.9526 15.4616 12.3195 15.0711 11.9289C14.6805 11.5384 14.0474 11.5384 13.6569 11.9289L8 17.5858L2.34315 11.9289C1.95262 11.5384 1.31946 11.5384 0.928932 11.9289C0.538408 12.3195 0.538408 12.9526 0.928932 13.3431L7.29289 19.7071ZM7 0L7 19H9L9 0L7 0Z" fill="white"/>
</svg>
